# xmcd
#
# Track frame offsets:
#	150
#	16105
#	29605
#	40077
#	56710
#	67392
#	80182
#	90820
#	103482
#	114577
#	126365
#	140752
#	156765
#	168065
#	181497
#	193187
#	208537
#	221510
#	235520
#	247612
#
# Disc length: 3449 seconds
#
# Revision: 0
# Processed by: cddbd v1.5.1PL2 Copyright (c) Steve Scherf et al.
# Submitted via: EasyCDDAExtractor 9.1.3.1
#
DISCID=1a0d7714
DTITLE=Dario Moréno - 2CD Collection [CD1)
DYEAR=2000
DGENRE=Chanson
TTITLE0=Caramba
TTITLE1=Comédie
TTITLE2=Vérité
TTITLE3=Eldimera
TTITLE4=Anne-Lyse
TTITLE5=Mé qué, mé qué
TTITLE6=Viens
TTITLE7=Tiens, tiens, tiens
TTITLE8=Mambo Italiano
TTITLE9=C'est magnifique
TTITLE10=Sur ma vie
TTITLE11=La siesta
TTITLE12=Je vais revoir ma blonde
TTITLE13=Miguelito
TTITLE14=Day O
TTITLE15=Marianne
TTITLE16=La vie tranquille
TTITLE17=Quand elle danse
TTITLE18=Jéricho
TTITLE19=Si tu vas à Rio
EXTD=
EXTT0=
EXTT1=
EXTT2=
EXTT3=
EXTT4=
EXTT5=
EXTT6=
EXTT7=
EXTT8=
EXTT9=
EXTT10=
EXTT11=
EXTT12=
EXTT13=
EXTT14=
EXTT15=
EXTT16=
EXTT17=
EXTT18=
EXTT19=
PLAYORDER=
